<svg width="115" height="43" viewBox="0 0 512 192" fill="none" xmlns="http://www.w3.org/2000/svg">
<path fill-rule="evenodd" clip-rule="evenodd" d="M0.000244141 0H76.9272C129.952 0 170.339 41.6914 170.339 95.9999C170.339 150.308 129.952 192 76.9272 192H57.108L57.108 149.76H76.9272C107.149 149.76 128.029 128.914 128.029 95.9999C128.029 63.0857 107.149 42.24 76.9272 42.24H43.9585V129.989L11.7833 160.734L0.000244141 172.511V0ZM43.3234 192H0.000510231L21.4185 170.593L43.3234 149.662L43.3234 192Z" fill="white"/>
<path d="M43.323 192L-4.57764e-05 192L21.4181 170.593L43.323 149.662L43.323 192Z" fill="#005ECC"/>
<path d="M236.368 13.2029H210.339V77.5421H236.368C254.31 77.5421 267.975 63.5713 267.975 45.3725C267.975 27.1737 254.31 13.2029 236.368 13.2029ZM236.368 63.3875H225.213V27.3575H236.368C246.594 27.3575 253.659 34.3429 253.659 45.3725C253.659 56.4021 246.594 63.3875 236.368 63.3875Z" fill="white"/>
<path d="M310.549 77.5421H326.538L312.687 53.9204C319.845 50.3358 324.679 43.1666 324.679 35.262C324.679 23.0376 314.732 13.2029 302.368 13.2029H276.338V77.5421H291.212V56.4021H298.277L310.549 77.5421ZM291.212 26.9899H302.368C306.458 26.9899 309.805 30.5745 309.805 35.262C309.805 39.9496 306.458 43.5342 302.368 43.5342H291.212V26.9899Z" fill="white"/>
<path d="M348.406 63.3875V51.9902H371.647V38.0194H348.406V27.3575H373.971V13.2029H333.532V77.5421H374.436V63.3875H348.406Z" fill="white"/>
<path d="M425.104 77.5421H441.372L419.247 13.2029H400.283L378.158 77.5421H394.426L397.68 67.4316H421.85L425.104 77.5421ZM402.142 53.6447L409.765 30.023L417.388 53.6447H402.142Z" fill="white"/>
<path d="M511.995 13.2029H497.121L479.458 41.7879L461.795 13.2029H446.921V77.5421H461.795V40.1334L478.621 67.4316H480.294L497.121 40.1334V77.5421H511.995V13.2029Z" fill="white"/>
<path d="M244.116 178.797C255.994 178.797 266.387 172.956 271.955 163.776L259.149 156.358C256.365 161.365 250.705 164.332 244.116 164.332C232.61 164.332 225.186 156.636 225.186 145.046C225.186 133.455 232.61 125.759 244.116 125.759C250.705 125.759 256.272 128.726 259.149 133.733L271.955 126.315C266.294 117.135 255.901 111.294 244.116 111.294C224.536 111.294 210.339 125.944 210.339 145.046C210.339 164.147 224.536 178.797 244.116 178.797Z" fill="white"/>
<path d="M313.062 177.499H329.022L315.196 153.669C322.341 150.053 327.167 142.82 327.167 134.846C327.167 122.513 317.237 112.592 304.896 112.592H278.913V177.499H293.76V156.172H300.813L313.062 177.499ZM293.76 126.501H304.896C308.979 126.501 312.319 130.117 312.319 134.846C312.319 139.575 308.979 143.191 304.896 143.191H293.76V126.501Z" fill="white"/>
<path d="M377.298 177.499H393.537L371.452 112.592H352.521L330.436 177.499H346.675L349.923 167.299H374.05L377.298 177.499ZM354.377 153.391L361.987 129.561L369.596 153.391H354.377Z" fill="white"/>
<path d="M438.514 126.872V112.592H399.076V177.499H413.923V153.669H438.05V139.389H413.923V126.872H438.514Z" fill="white"/>
<path d="M490.9 112.592H442.646V126.872H459.349V177.499H474.196V126.872H490.9V112.592Z" fill="white"/>
</svg>
