<svg width="115" height="43" viewBox="0 0 115 43" fill="none" xmlns="http://www.w3.org/2000/svg">
 <path fill-rule="evenodd" clip-rule="evenodd" d="M0 0H17.1884C29.0361 0 38.06 9.31543 38.06 21.45C38.06 33.5846 29.0361 42.9 17.1884 42.9H12.76L12.76 33.462H17.1884C23.941 33.462 28.6064 28.8043 28.6064 21.45C28.6064 14.0957 23.941 9.438 17.1884 9.438H9.82194V29.0443L2.63276 35.914L0 38.5454V0ZM9.68 42.9L9.68 33.44L4.78561 38.1169L0 42.9L9.68 42.9Z" fill="#292929"/>
<path d="M9.67969 42.9L-0.000310898 42.9L4.7853 38.1168L9.67969 33.44L9.67969 42.9Z" fill="#0052CC"/>
<path d="M52.896 2.99995H47.0801V17.3758H52.896C56.9049 17.3758 59.9583 14.2542 59.9583 10.1879C59.9583 6.12156 56.9049 2.99995 52.896 2.99995ZM52.896 14.2131H50.4035V6.16263H52.896C55.1809 6.16263 56.7595 7.72343 56.7595 10.1879C56.7595 12.6523 55.1809 14.2131 52.896 14.2131Z" fill="#292929"/>
<path d="M69.4707 17.3758H73.0434L69.9485 12.0978C71.5479 11.2968 72.628 9.69497 72.628 7.9288C72.628 5.1974 70.4054 2.99995 67.6429 2.99995H61.8269V17.3758H65.1503V12.6523H66.7289L69.4707 17.3758ZM65.1503 6.08048H67.6429C68.5568 6.08048 69.3046 6.88142 69.3046 7.9288C69.3046 8.97618 68.5568 9.77712 67.6429 9.77712H65.1503V6.08048Z" fill="#292929"/>
<path d="M77.9295 14.2131V11.6665H83.1224V8.54491H77.9295V6.16263H83.6416V2.99995H74.6061V17.3758H83.7455V14.2131H77.9295Z" fill="#292929"/>
<path d="M95.0667 17.3758H98.7017L93.7581 2.99995H89.5207L84.5772 17.3758H88.2121L88.9391 15.1167H94.3397L95.0667 17.3758ZM89.9362 12.0362L91.6394 6.7582L93.3427 12.0362H89.9362Z" fill="#292929"/>
<path d="M114.481 2.99995H111.158L107.211 9.38692L103.265 2.99995H99.9414V17.3758H103.265V9.01725L107.024 15.1167H107.398L111.158 9.01725V17.3758H114.481V2.99995Z" fill="#292929"/>
<path d="M54.6272 39.9999C57.2812 39.9999 59.6034 38.6947 60.8474 36.6436L57.9862 34.9862C57.3641 36.1049 56.0994 36.7679 54.6272 36.7679C52.0562 36.7679 50.3975 35.0483 50.3975 32.4585C50.3975 29.8688 52.0562 28.1492 54.6272 28.1492C56.0994 28.1492 57.3434 28.8121 57.9862 29.9309L60.8474 28.2735C59.5827 26.2224 57.2605 24.9171 54.6272 24.9171C50.2524 24.9171 47.0801 28.1906 47.0801 32.4585C47.0801 36.7265 50.2524 39.9999 54.6272 39.9999Z" fill="#292929"/>
<path d="M70.0323 39.7099H73.5985L70.5091 34.3853C72.1057 33.5773 73.1838 31.9613 73.1838 30.1795C73.1838 27.424 70.9653 25.2072 68.2077 25.2072H62.4022V39.7099H65.7196V34.9447H67.2954L70.0323 39.7099ZM65.7196 28.3149H68.2077C69.12 28.3149 69.8664 29.1229 69.8664 30.1795C69.8664 31.2362 69.12 32.0442 68.2077 32.0442H65.7196V28.3149Z" fill="#292929"/>
<path d="M84.385 39.7099H88.0135L83.0788 25.2072H78.8491L73.9144 39.7099H77.5428L78.2685 37.4309H83.6594L84.385 39.7099ZM79.2638 34.3232L80.9639 28.9986L82.6641 34.3232H79.2638Z" fill="#292929"/>
<path d="M98.063 28.3978V25.2072H89.2511V39.7099H92.5685V34.3853H97.9593V31.1947H92.5685V28.3978H98.063Z" fill="#292929"/>
<path d="M109.768 25.2072H98.9863V28.3978H102.718V39.7099H106.036V28.3978H109.768V25.2072Z" fill="#292929"/>
</svg>
